<svg width="51" height="48" viewBox="0 0 51 48" fill="none" xmlns="http://www.w3.org/2000/svg">
<path d="M33.2861 8C30.2518 8 27.3395 9.41253 25.4387 11.6447C23.5379 9.41253 20.6256 8 17.5913 8C12.2202 8 8 12.2202 8 17.5913C8 24.1831 13.9292 29.5542 22.9101 37.7155L25.4387 40L27.9673 37.6981C36.9482 29.5542 42.8774 24.1831 42.8774 17.5913C42.8774 12.2202 38.6572 8 33.2861 8ZM25.6131 35.1172L25.4387 35.2916L25.2643 35.1172C16.9635 27.6011 11.4877 22.6311 11.4877 17.5913C11.4877 14.1035 14.1035 11.4877 17.5913 11.4877C20.2768 11.4877 22.8926 13.2142 23.8169 15.6033H27.0779C27.9847 13.2142 30.6005 11.4877 33.2861 11.4877C36.7738 11.4877 39.3896 14.1035 39.3896 17.5913C39.3896 22.6311 33.9139 27.6011 25.6131 35.1172Z" fill="url(#paint0_linear_262404_509)"/>
<defs>
<linearGradient id="paint0_linear_262404_509" x1="22.5726" y1="4.15999" x2="72.8222" y2="11.4119" gradientUnits="userSpaceOnUse">
<stop stop-color="#002F52"/>
<stop offset="1" stop-color="#326589"/>
</linearGradient>
</defs>
</svg>
